
<svg width="32" height="32" viewBox="0 0 32 32" xmlns="http://www.w3.org/2000/svg">
  <circle cx="16" cy="16" r="15" fill="#8B5CF6" />
  <path d="M14.5 21.5c-2.5 0-4-1.5-4-3.5 0-1.5 1-2.5 2-3-0.7-0.4-1-1-1-2 0-1.7 1.3-3 3.5-3 2 0 3.3 1.3 3.3 2.8 0 1-0.7 1.8-1.8 2.2 1 0.4 2 1.4 2 3 0 2-1.5 3.5-4 3.5zm0-5c-1 0-1.8 0.7-1.8 1.5 0 0.9 0.8 1.5 1.8 1.5s1.8-0.7 1.8-1.5c0-0.9-0.8-1.5-1.8-1.5zm0-5c-0.7 0-1.3 0.5-1.3 1.2 0 0.6 0.6 1.2 1.3 1.2 0.7 0 1.3-0.5 1.3-1.2 0-0.6-0.6-1.2-1.3-1.2z" fill="white" />
</svg>
